<svg xmlns="http://www.w3.org/2000/svg" viewBox="20.00127801561473 92.77668497856504 534.9980182344478 389.44621528987966"><rect height="100%" width="100%" x="20.00127801561473" y="92.77668497856504" fill="rgba(255, 255, 255, 1)"/> <svg xmlns="http://www.w3.org/2000/svg" xmlns:xlink="http://www.w3.org/1999/xlink" version="1.1" id="Layer_1" x="201.11839907203" y="162.77668497856504" viewBox="1.5952752828598022 0.8000001907348633 87.61011505126953 94.72773742675781" xml:space="preserve" height="196.16125003214444" width="181.42216978274632" preserveAspectRatio="xMinYMin" enable-background="new 0 0 90.7 96.4" style="overflow: visible;"><circle class="st5" cx="77" cy="24.5" r="6" style="fill: #8A7368;"></circle><circle class="st5" cx="13.7" cy="24.5" r="6" style="fill: #8A7368;"></circle><circle class="st5" cx="61.2" cy="33.3" r="6" style="fill: #8A7368;"></circle><path class="st103" d="M88.4,36c-0.1-1.8-1.6-3.2-3.3-3.3h-4l-4,2.8l-4-2.8h-2.9c0,0.2,0,0.4,0,0.5c0,2-0.7,3.8-1.7,5.3h0.9l0,0    c3.3,0.1,6.1,2.8,6.3,6.1l0.8,17.5c0.2,3-1.8,5.7-4.6,6.5l-0.2,8.5c0.5,0.3,1,0.5,1.7,0.6c1.7,0.2,3.1-0.8,3.8-2.1    c0.6,1.3,2,2.2,3.5,2.1c2.1,0,3.7-1.7,3.7-3.7L84.7,57c0.3,0.1,0.7,0.2,1.1,0.2c0.1,0,0.2,0,0.3,0c1.9-0.2,3.2-1.8,3.1-3.7    L88.4,36z" style="fill: #4e6195; fill-opacity: 1;"></path><circle class="st181" cx="29.5" cy="33.3" r="6" style="fill: #F3CC9A;"></circle><path class="st103" d="M20.6,33.3c0-0.2,0-0.4,0-0.5h-2.9l-4,2.8l-4-2.8h-4c-1.8,0-3.3,1.4-3.3,3.3L1.6,53.5    c-0.1,1.9,1.4,3.5,3.3,3.6c0.1,0,0.1,0,0.2,0c0.4,0,0.7-0.1,1.1-0.2l0.4,17c0,2,1.5,3.7,3.5,3.9c1.7,0.2,3.1-0.8,3.8-2.1    c0.6,1.3,2,2.2,3.5,2.1c0.7,0,1.4-0.2,1.9-0.6L19,68.7c-1.1-0.3-2.1-1-2.9-1.8c-1.2-1.3-1.7-2.9-1.7-4.6l0.8-17.5    c0.2-3.3,2.9-6,6.3-6.1l0,0h0.8C21.2,37.1,20.6,35.3,20.6,33.3z" style="fill: #4e6195; fill-opacity: 1;"></path><path class="st103" d="M34,53.7c0.1-1.8,1.6-3.2,3.3-3.3l4,0l4,2.8l4-2.8l4,0c1.8,0,3.3,1.4,3.3,3.3l0.8,17.4   c0.1,1.9-1.3,3.5-3.1,3.7c-0.1,0-0.2,0-0.3,0c-0.4,0-0.7-0.1-1.1-0.2l-0.4,17.2c-0.1,2-1.7,3.7-3.7,3.7c-1.5,0-2.9-0.8-3.5-2.1   c-0.7,1.4-2.1,2.3-3.8,2.1c-2-0.2-3.4-1.9-3.5-3.9l-0.4-17c-0.3,0.1-0.7,0.2-1.1,0.2c-0.1,0-0.1,0-0.2,0c-1.9-0.1-3.4-1.7-3.3-3.6   L34,53.7z" style="fill: #4e6195; fill-opacity: 1;"></path><circle class="st181" cx="45.4" cy="42.1" r="6" style="fill: #F3CC9A;"></circle><path class="st103" d="M36.4,41.6h-2.9l-4,2.8l-4-2.8h-4c-1.8,0-3.3,1.4-3.3,3.3l-0.8,17.5c-0.1,1.9,1.4,3.5,3.3,3.6   c0.1,0,0.1,0,0.2,0c0.4,0,0.7-0.1,1.1-0.2l0.4,17c0,2,1.5,3.7,3.5,3.9c1.7,0.2,3.1-0.8,3.8-2.1c0.6,1.3,2,2.2,3.5,2.1   c0.7,0,1.4-0.2,1.9-0.6l-0.2-8.6c-1.1-0.3-2.1-1-2.9-1.8c-1.2-1.3-1.7-2.9-1.7-4.6L31,53.5c0.2-3.3,2.9-6,6.3-6.1l0,0h0.9   c-1.1-1.5-1.7-3.3-1.7-5.3C36.4,42,36.4,41.8,36.4,41.6z M72.6,44.9c-0.1-1.8-1.6-3.2-3.3-3.3h-4l-4,2.8l-4-2.8h-2.9   c0,0.2,0,0.4,0,0.5c0,2-0.7,3.8-1.7,5.3h0.8l0,0c3.3,0.1,6.1,2.8,6.3,6.1L60.5,71c0.2,3.1-1.8,5.7-4.6,6.6l-0.2,8.6   c0.6,0.4,1.2,0.6,1.9,0.6c1.5,0,2.9-0.8,3.5-2.1c0.7,1.4,2.1,2.3,3.8,2.1c2-0.2,3.4-1.9,3.5-3.9l0.4-17c0.3,0.1,0.7,0.2,1.1,0.2   c0.1,0,0.1,0,0.2,0c1.9-0.1,3.4-1.7,3.3-3.6L72.6,44.9z" style="fill: #4e6195; fill-opacity: 1;"></path><circle class="st5" cx="45.4" cy="24.5" r="6" style="fill: #8A7368;"></circle><circle class="st5" cx="29.5" cy="15.6" r="6" style="fill: #8A7368;"></circle><circle class="st181" cx="45.4" cy="6.8" r="6" style="fill: #F3CC9A;"></circle><circle class="st181" cx="61.2" cy="15.6" r="6" style="fill: #F3CC9A;"></circle></svg> <svg y="371.0629004210326" viewBox="1.7100000381469727 12.680000305175781 139.67999267578125 41.15999984741211" x="345.3193035742813" height="41.15999984741211" width="139.67999267578125" xmlns="http://www.w3.org/2000/svg" style="overflow: visible;"><g fill="#4e6195" fill-opacity="1" style=""><path d="M14.27 47.64L14.27 47.64Q18.14 47.64 19.90 46.33Q21.66 45.03 21.66 42.64L21.66 42.64Q21.66 41.22 21.06 40.19Q20.47 39.17 19.36 38.35Q18.25 37.52 16.66 36.81Q15.07 36.10 13.02 35.42L13.02 35.42Q10.97 34.68 9.07 33.80Q7.16 32.92 5.71 31.61Q4.26 30.30 3.38 28.48Q2.50 26.66 2.50 24.11L2.50 24.11Q2.50 18.76 6.20 15.72Q9.89 12.68 16.26 12.68L16.26 12.68Q19.96 12.68 22.83 13.50Q25.70 14.33 27.35 15.29L27.35 15.29L25.13 21.09Q23.20 20.01 20.89 19.44Q18.59 18.87 16.15 18.87L16.15 18.87Q13.25 18.87 11.63 20.07Q10.01 21.26 10.01 23.42L10.01 23.42Q10.01 24.73 10.55 25.67Q11.09 26.61 12.08 27.35Q13.08 28.09 14.41 28.71Q15.75 29.34 17.34 29.90L17.34 29.90Q20.13 30.93 22.31 31.98Q24.50 33.03 26.01 34.48Q27.52 35.93 28.31 37.89Q29.11 39.85 29.11 42.64L29.11 42.64Q29.11 47.98 25.33 50.91Q21.55 53.84 14.27 53.84L14.27 53.84Q11.83 53.84 9.81 53.53Q7.79 53.21 6.23 52.76Q4.66 52.30 3.52 51.82Q2.39 51.34 1.71 50.94L1.71 50.94L3.81 45.08Q5.34 45.94 7.96 46.79Q10.57 47.64 14.27 47.64ZM46.56 13.19L46.56 13.19Q55.15 13.19 59.72 16.32Q64.30 19.44 64.30 26.10L64.30 26.10Q64.30 29.56 63.08 32.04Q61.86 34.51 59.52 36.07Q57.19 37.64 53.84 38.38Q50.48 39.11 46.16 39.11L46.16 39.11L42.58 39.11L42.58 52.99L35.42 52.99L35.42 14.16Q37.92 13.59 40.96 13.39Q44.00 13.19 46.56 13.19ZM47.07 19.39L47.07 19.39Q44.34 19.39 42.58 19.56L42.58 19.56L42.58 32.97L46.05 32.97Q51.22 32.97 54.01 31.52Q56.80 30.07 56.80 26.04L56.80 26.04Q56.80 24.11 56.06 22.80Q55.32 21.49 54.01 20.75Q52.70 20.01 50.91 19.70Q49.12 19.39 47.07 19.39ZM76.69 33.26L76.69 33.26Q76.69 36.50 77.49 39.14Q78.29 41.79 79.79 43.63Q81.30 45.48 83.46 46.51Q85.62 47.53 88.35 47.53L88.35 47.53Q91.02 47.53 93.18 46.51Q95.34 45.48 96.85 43.63Q98.35 41.79 99.15 39.14Q99.95 36.50 99.95 33.26L99.95 33.26Q99.95 30.02 99.15 27.37Q98.35 24.73 96.85 22.88Q95.34 21.04 93.18 20.01Q91.02 18.99 88.35 18.99L88.35 18.99Q85.62 18.99 83.46 20.01Q81.30 21.04 79.79 22.91Q78.29 24.79 77.49 27.40Q76.69 30.02 76.69 33.26ZM107.45 33.26L107.45 33.26Q107.45 38.32 105.94 42.18Q104.44 46.05 101.85 48.64Q99.26 51.22 95.80 52.53Q92.33 53.84 88.41 53.84L88.41 53.84Q84.48 53.84 80.99 52.53Q77.49 51.22 74.90 48.64Q72.32 46.05 70.78 42.18Q69.25 38.32 69.25 33.26L69.25 33.26Q69.25 28.20 70.78 24.36Q72.32 20.52 74.96 17.91Q77.60 15.29 81.07 13.99Q84.54 12.68 88.41 12.68L88.41 12.68Q92.27 12.68 95.74 13.99Q99.21 15.29 101.79 17.91Q104.38 20.52 105.92 24.36Q107.45 28.20 107.45 33.26ZM109.95 13.59L141.39 13.59L141.39 19.78L129.28 19.78L129.28 52.99L122.06 52.99L122.06 19.78L109.95 19.78L109.95 13.59Z" transform="translate(0, 0)"></path></g></svg> <svg y="358.93773735160914" viewBox="3.630000114440918 22.049999237060547 253.66000366210938 53.28000259399414" x="90.00127801561473" height="53.28000259399414" width="253.66000366210938" xmlns="http://www.w3.org/2000/svg" style="overflow: visible;"><g fill="#504e53" fill-opacity="1" style=""><path d="M18.35 43.46L15.01 62.53Q14.94 62.95 14.94 63.67L14.94 63.67Q14.94 65.09 15.76 65.69Q16.57 66.30 18.50 66.30L18.50 66.30L23.19 66.30L21.70 74.69L15.37 74.69Q4.69 74.69 4.69 65.80L4.69 65.80Q4.69 64.09 4.98 62.46L4.98 62.46L8.32 43.46L3.63 43.46L5.05 35.28L9.82 35.28L11.52 25.54L21.55 25.54L19.85 35.28L28.60 35.28L27.17 43.46L18.35 43.46ZM29.81 54.84Q30.87 48.87 34.04 44.25Q37.20 39.62 41.76 37.13Q46.31 34.64 51.36 34.64L51.36 34.64Q55.77 34.64 58.79 36.42Q61.82 38.20 63.24 40.90L63.24 40.90L64.23 35.28L74.26 35.28L67.29 74.69L57.26 74.69L58.33 68.93Q55.98 71.70 52.25 73.52Q48.51 75.33 44.10 75.33L44.10 75.33Q39.76 75.33 36.42 73.38Q33.08 71.42 31.23 67.83Q29.38 64.23 29.38 59.47L29.38 59.47Q29.38 57.26 29.81 54.84L29.81 54.84ZM60.75 54.99Q61.03 53.14 61.03 52.28L61.03 52.28Q61.03 48.09 58.58 45.74Q56.13 43.39 52.43 43.39L52.43 43.39Q49.65 43.39 47.06 44.74Q44.46 46.10 42.54 48.69Q40.62 51.29 39.98 54.84L39.98 54.84Q39.76 56.20 39.76 57.41L39.76 57.41Q39.76 61.67 42.18 64.13Q44.60 66.58 48.30 66.58L48.30 66.58Q51.07 66.58 53.71 65.19Q56.34 63.81 58.22 61.18Q60.11 58.54 60.75 54.99L60.75 54.99ZM86.36 22.05L96.39 22.05L87.07 74.69L77.04 74.69L86.36 22.05ZM121.14 34.64Q128.68 34.64 133.09 38.80Q137.50 42.97 137.50 50.01L137.50 50.01Q137.50 52.28 137.15 54.06L137.15 54.06Q136.72 56.20 136.22 57.76L136.22 57.76L107.41 57.76Q107.34 58.26 107.34 59.18L107.34 59.18Q107.34 62.88 109.51 64.98Q111.68 67.08 115.24 67.08L115.24 67.08Q118.23 67.08 120.40 65.76Q122.57 64.45 123.92 62.31L123.92 62.31L134.66 62.31Q132.03 68.00 126.51 71.67Q121.00 75.33 114.03 75.33L114.03 75.33Q106.49 75.33 101.94 71.06Q97.38 66.80 97.38 59.47L97.38 59.47Q97.38 57.33 97.81 54.99L97.81 54.99Q98.88 48.87 102.18 44.25Q105.49 39.62 110.40 37.13Q115.31 34.64 121.14 34.64L121.14 34.64ZM127.26 51.71Q127.40 50.58 127.40 50.08L127.40 50.08Q127.40 46.66 125.20 44.74Q122.99 42.82 119.44 42.82L119.44 42.82Q115.66 42.82 112.68 45.21Q109.69 47.59 108.48 51.71L108.48 51.71L127.26 51.71ZM169.59 34.71Q175.70 34.71 179.22 38.02Q182.74 41.33 182.74 47.45L182.74 47.45Q182.74 49.72 182.39 51.57L182.39 51.57L178.26 74.69L168.38 74.69L172.22 52.92Q172.43 51.64 172.43 50.43L172.43 50.43Q172.43 46.88 170.55 45.03Q168.66 43.18 165.17 43.18L165.17 43.18Q161.19 43.18 158.38 45.56Q155.57 47.94 154.65 52.43L154.65 52.43L150.73 74.69L140.70 74.69L147.68 35.28L157.71 35.28L156.85 40.12Q159.27 37.63 162.61 36.17Q165.96 34.71 169.59 34.71L169.59 34.71ZM204.87 43.46L201.52 62.53Q201.45 62.95 201.45 63.67L201.45 63.67Q201.45 65.09 202.27 65.69Q203.09 66.30 205.01 66.30L205.01 66.30L209.71 66.30L208.21 74.69L201.88 74.69Q191.21 74.69 191.21 65.80L191.21 65.80Q191.21 64.09 191.49 62.46L191.49 62.46L194.84 43.46L190.14 43.46L191.57 35.28L196.33 35.28L198.04 25.54L208.07 25.54L206.36 35.28L215.11 35.28L213.69 43.46L204.87 43.46ZM232.97 75.33Q227.92 75.33 224.04 73.27Q220.16 71.21 218.03 67.44Q215.89 63.67 215.89 58.76L215.89 58.76Q215.89 52.07 219.06 46.56Q222.22 41.04 227.74 37.84Q233.25 34.64 240.01 34.64L240.01 34.64Q245.06 34.64 249.01 36.74Q252.95 38.84 255.12 42.61Q257.29 46.38 257.29 51.29L257.29 51.29Q257.29 58.05 254.09 63.52Q250.89 69.00 245.31 72.17Q239.72 75.33 232.97 75.33L232.97 75.33ZM234.32 66.80Q237.87 66.80 240.79 64.73Q243.71 62.67 245.34 59.26Q246.98 55.84 246.98 52.07L246.98 52.07Q246.98 47.80 244.60 45.49Q242.21 43.18 238.59 43.18L238.59 43.18Q234.96 43.18 232.15 45.24Q229.34 47.30 227.77 50.75Q226.21 54.20 226.21 58.05L226.21 58.05Q226.21 62.24 228.45 64.52Q230.69 66.80 234.32 66.80L234.32 66.80Z" transform="translate(0, 0)"></path></g></svg></svg>